<svg version="1" xmlns="http://www.w3.org/2000/svg" width="682.667" height="682.667" viewBox="0 0 512.000000 512.000000"><path d="M.1 254.2C.1 474.6.3 508 1.5 505 3.9 499.1 179 1.7 179 .8c0-.4-40.3-.8-89.5-.8H0l.1 254.2zM334 .8c0 .7 169.1 478.9 175.5 496.2l2.4 6.5V251.7L512 0h-89c-49 0-89 .4-89 .8zM252.2 145.8c-.7.5-2.1 3.1-3.1 5.8-6.4 16.8-62.1 179.5-62.1 181.2 0 1.1 1.2 3 2.6 4.1 2.6 2.1 3.4 2.1 66.8 2.1 49.5 0 64.7-.3 66.6-1.3 1.8-.9 2.6-2.2 2.8-4.7.3-5-62.9-183.8-65.9-186.3-2.3-1.8-5.6-2.2-7.7-.9zM142.6 459.9c-.9 1-5.4 13.1-10.1 27l-8.3 25.1h132.9c78.7 0 132.9-.4 132.9-.9 0-2.2-17.4-49.8-18.8-51.4-1.4-1.6-8.1-1.7-114.2-1.7-108.6 0-112.8.1-114.4 1.9z"/></svg>